<svg width="26" height="25" viewBox="0 0 26 25" fill="none" xmlns="http://www.w3.org/2000/svg">
<path d="M22.2959 7.29167C22.1159 6.97981 21.8581 6.71993 21.5478 6.53737C21.2374 6.35481 20.8851 6.2558 20.525 6.25H7.19171L6.58754 3.89583C6.5265 3.66858 6.39031 3.46869 6.20116 3.32872C6.01201 3.18875 5.78104 3.11695 5.54588 3.125H3.46254C3.18628 3.125 2.92132 3.23475 2.72597 3.4301C2.53062 3.62545 2.42088 3.8904 2.42088 4.16667C2.42088 4.44293 2.53062 4.70789 2.72597 4.90324C2.92132 5.09859 3.18628 5.20833 3.46254 5.20833H4.75421L7.62921 15.8958C7.69025 16.1231 7.82644 16.323 8.01559 16.4629C8.20474 16.6029 8.43571 16.6747 8.67088 16.6667H18.0459C18.2382 16.6661 18.4267 16.6122 18.5903 16.5111C18.754 16.41 18.8864 16.2655 18.973 16.0938L22.3896 9.26042C22.5377 8.95002 22.6067 8.60778 22.5903 8.26425C22.5739 7.92073 22.4728 7.58659 22.2959 7.29167ZM17.4 14.5833H9.46254L7.76463 8.33333H20.525L17.4 14.5833Z" fill="black"/>
<path d="M8.15001 21.875C9.01295 21.875 9.71251 21.1754 9.71251 20.3125C9.71251 19.4496 9.01295 18.75 8.15001 18.75C7.28706 18.75 6.58751 19.4496 6.58751 20.3125C6.58751 21.1754 7.28706 21.875 8.15001 21.875Z" fill="black"/>
<path d="M18.5667 21.875C19.4297 21.875 20.1292 21.1754 20.1292 20.3125C20.1292 19.4496 19.4297 18.75 18.5667 18.75C17.7038 18.75 17.0042 19.4496 17.0042 20.3125C17.0042 21.1754 17.7038 21.875 18.5667 21.875Z" fill="black"/>
</svg>
